# xmcd CD database file
#
# Track frame offsets:
#	150
#	12204
#	23904
#	35848
#	49803
#	61617
#	78849
#	95306
#	113893
#	124630
#	137242
#	155519
#	169809
#	182261
#	194948
#	212135
#	223864
#	237696
#	250726
#	261258
#	272592
#	287102
#	311384
#
# Disc length: 4324 seconds
#
# Revision: 0
# Processed by: cddbd v1.5.2PL0 Copyright (c) Steve Scherf et al.
# Submitted via: CDex 1.70beta2
#
DISCID=5010e217
DTITLE=Cash Johnny - The man in black
DYEAR=1900
DGENRE=Country
TTITLE0=Ring of fire
TTITLE1=I walk the line
TTITLE2=Get rythm
TTITLE3=It ain't me Babe
TTITLE4=I still miss someone
TTITLE5=(Ghost) riders in the sky
TTITLE6=The Baron
TTITLE7=Sunday morning coming down
TTITLE8=Daddy sang bass
TTITLE9=Jackson (+ June Carter)
TTITLE10=One piece at a time
TTITLE11=Orange blossom special
TTITLE12=Folsom prison blues
TTITLE13=San Quentin
TTITLE14=A boy named Sue
TTITLE15=A thing called love
TTITLE16=Don't take your guns to town
TTITLE17=Wanted man
TTITLE18=Big river
TTITLE19=Without love
TTITLE20=No expectations
TTITLE21=Highway patrolman
TTITLE22=Man in black
EXTD=
EXTT0=
EXTT1=
EXTT2=
EXTT3=
EXTT4=
EXTT5=
EXTT6=
EXTT7=
EXTT8=
EXTT9=
EXTT10=
EXTT11=
EXTT12=
EXTT13=
EXTT14=
EXTT15=
EXTT16=
EXTT17=
EXTT18=
EXTT19=
EXTT20=
EXTT21=
EXTT22=
PLAYORDER=
